name ./resultDataOpenSim/trcMotMarkerGrf/sub10/grf-05-01.mot
datacolumns 19
datarows 17
range 1.48800000 1.55200000
endheader

                time	     ground_force_vx	     ground_force_vy	     ground_force_vz	     ground_force_px	     ground_force_py	     ground_force_pz	   l_ground_force_vx	   l_ground_force_vy	   l_ground_force_vz	   l_ground_force_px	   l_ground_force_py	   l_ground_force_pz	     ground_torque_x	     ground_torque_y	     ground_torque_z	   l_ground_torque_x	   l_ground_torque_y	   l_ground_torque_z	
          1.48800000	        -27.17925423	        399.45669356	        -19.00383416	          0.92893914	          0.00000000	          0.03706867	          0.00000000	          0.00000000	          0.00000000	          0.00000000	          0.00000000	          0.00000000	          0.00000000	          2.31142250	          0.00000000	          0.00000000	          0.00000000	          0.00000000	
          1.49200000	        -23.59134903	        394.22125996	        -18.71174681	          0.92979252	          0.00000000	          0.03730577	          0.00000000	          0.00000000	          0.00000000	          0.00000000	          0.00000000	          0.00000000	          0.00000000	          2.31963448	          0.00000000	          0.00000000	          0.00000000	          0.00000000	
          1.49600000	        -20.93756881	        389.52681864	        -19.14139961	          0.93074715	          0.00000000	          0.03752575	          0.00000000	          0.00000000	          0.00000000	          0.00000000	          0.00000000	          0.00000000	          0.00000000	          2.34112541	          0.00000000	          0.00000000	          0.00000000	          0.00000000	
          1.50000000	        -19.41803969	        385.37380307	        -20.09470074	          0.93184379	          0.00000000	          0.03771419	          0.00000000	          0.00000000	          0.00000000	          0.00000000	          0.00000000	          0.00000000	          0.00000000	          2.37765340	          0.00000000	          0.00000000	          0.00000000	          0.00000000	
          1.50400000	        -18.94749212	        381.71193080	        -21.26245997	          0.93307308	          0.00000000	          0.03785891	          0.00000000	          0.00000000	          0.00000000	          0.00000000	          0.00000000	          0.00000000	          0.00000000	          2.42741721	          0.00000000	          0.00000000	          0.00000000	          0.00000000	
          1.50800000	        -19.20064752	        378.47764279	        -22.29076062	          0.93434614	          0.00000000	          0.03795468	          0.00000000	          0.00000000	          0.00000000	          0.00000000	          0.00000000	          0.00000000	          0.00000000	          2.48539109	          0.00000000	          0.00000000	          0.00000000	          0.00000000	
          1.51200000	        -19.71991413	        375.64612158	        -22.85424023	          0.93558223	          0.00000000	          0.03799307	          0.00000000	          0.00000000	          0.00000000	          0.00000000	          0.00000000	          0.00000000	          0.00000000	          2.54493440	          0.00000000	          0.00000000	          0.00000000	          0.00000000	
          1.51600000	        -20.04480236	        373.23447701	        -22.72320774	          0.93670592	          0.00000000	          0.03797104	          0.00000000	          0.00000000	          0.00000000	          0.00000000	          0.00000000	          0.00000000	          0.00000000	          2.59979786	          0.00000000	          0.00000000	          0.00000000	          0.00000000	
          1.52000000	        -19.83384842	        371.26511180	        -21.81324025	          0.93766042	          0.00000000	          0.03789483	          0.00000000	          0.00000000	          0.00000000	          0.00000000	          0.00000000	          0.00000000	          0.00000000	          2.64547107	          0.00000000	          0.00000000	          0.00000000	          0.00000000	
          1.52400000	        -18.95039265	        369.74299286	        -20.20733874	          0.93842077	          0.00000000	          0.03778051	          0.00000000	          0.00000000	          0.00000000	          0.00000000	          0.00000000	          0.00000000	          0.00000000	          2.67939771	          0.00000000	          0.00000000	          0.00000000	          0.00000000	
          1.52800000	        -17.48522286	        368.66624787	        -18.14586264	          0.93900838	          0.00000000	          0.03765689	          0.00000000	          0.00000000	          0.00000000	          0.00000000	          0.00000000	          0.00000000	          0.00000000	          2.70037922	          0.00000000	          0.00000000	          0.00000000	          0.00000000	
          1.53200000	        -15.70794790	        368.05190597	        -15.98611778	          0.93948926	          0.00000000	          0.03755124	          0.00000000	          0.00000000	          0.00000000	          0.00000000	          0.00000000	          0.00000000	          0.00000000	          2.70788292	          0.00000000	          0.00000000	          0.00000000	          0.00000000	
          1.53600000	        -13.96656496	        367.94154514	        -14.13517612	          0.93992660	          0.00000000	          0.03748007	          0.00000000	          0.00000000	          0.00000000	          0.00000000	          0.00000000	          0.00000000	          0.00000000	          2.70176654	          0.00000000	          0.00000000	          0.00000000	          0.00000000	
          1.54000000	        -12.57128429	        368.37430538	        -12.96568155	          0.94036487	          0.00000000	          0.03744917	          0.00000000	          0.00000000	          0.00000000	          0.00000000	          0.00000000	          0.00000000	          0.00000000	          2.68241212	          0.00000000	          0.00000000	          0.00000000	          0.00000000	
          1.54400000	        -11.69544013	        369.36086874	        -12.73595122	          0.94082290	          0.00000000	          0.03745654	          0.00000000	          0.00000000	          0.00000000	          0.00000000	          0.00000000	          0.00000000	          0.00000000	          2.65090631	          0.00000000	          0.00000000	          0.00000000	          0.00000000	
          1.54800000	        -11.31953391	        370.88068070	        -13.53583979	          0.94128347	          0.00000000	          0.03749870	          0.00000000	          0.00000000	          0.00000000	          0.00000000	          0.00000000	          0.00000000	          0.00000000	          2.60896482	          0.00000000	          0.00000000	          0.00000000	          0.00000000	
          1.55200000	        -11.23490229	        372.88813404	        -15.26858826	          0.94170299	          0.00000000	          0.03757518	          0.00000000	          0.00000000	          0.00000000	          0.00000000	          0.00000000	          0.00000000	          0.00000000	          2.55865328	          0.00000000	          0.00000000	          0.00000000	          0.00000000	
